<svg width="32" height="32" viewBox="0 0 32 32" fill="none" xmlns="http://www.w3.org/2000/svg">
<g clip-path="url(#clip0_62_450)">
<path d="M30.0952 23.3332C30.6088 23.3335 31.1026 23.5313 31.4744 23.8858C31.8461 24.2402 32.0672 24.7241 32.0919 25.2371C32.1166 25.7501 31.9429 26.253 31.6069 26.6415C31.271 27.03 30.7984 27.2743 30.2872 27.3239L30.0952 27.3332H8.76184C8.24822 27.333 7.75438 27.1351 7.38266 26.7807C7.01094 26.4262 6.78982 25.9424 6.76514 25.4293C6.74046 24.9163 6.9141 24.4135 7.25007 24.025C7.58605 23.6365 8.05862 23.3921 8.56984 23.3426L8.76184 23.3332H30.0952ZM30.0952 13.9999C30.6256 13.9999 31.1343 14.2106 31.5094 14.5857C31.8845 14.9608 32.0952 15.4695 32.0952 15.9999C32.0952 16.5303 31.8845 17.039 31.5094 17.4141C31.1343 17.7892 30.6256 17.9999 30.0952 17.9999H8.76184C8.23141 17.9999 7.7227 17.7892 7.34763 17.4141C6.97255 17.039 6.76184 16.5303 6.76184 15.9999C6.76184 15.4695 6.97255 14.9608 7.34763 14.5857C7.7227 14.2106 8.23141 13.9999 8.76184 13.9999H30.0952ZM30.0952 4.66656C30.6256 4.66656 31.1343 4.87728 31.5094 5.25235C31.8845 5.62742 32.0952 6.13613 32.0952 6.66657C32.0952 7.197 31.8845 7.70571 31.5094 8.08078C31.1343 8.45585 30.6256 8.66657 30.0952 8.66657H8.76184C8.23141 8.66657 7.7227 8.45585 7.34763 8.08078C6.97255 7.70571 6.76184 7.197 6.76184 6.66657C6.76184 6.13613 6.97255 5.62742 7.34763 5.25235C7.7227 4.87728 8.23141 4.66656 8.76184 4.66656H30.0952Z" fill="white"/>
</g>
<defs>
<clipPath id="clip0_62_450">
<rect width="32" height="32" fill="white"/>
</clipPath>
</defs>
</svg>
